<?xml version="1.0" encoding="UTF-8" standalone="no"?>
<svg
   xmlns:dc="http://purl.org/dc/elements/1.1/"
   xmlns:cc="http://creativecommons.org/ns#"
   xmlns:rdf="http://www.w3.org/1999/02/22-rdf-syntax-ns#"
   xmlns:svg="http://www.w3.org/2000/svg"
   xmlns="http://www.w3.org/2000/svg"
   xmlns:sodipodi="http://sodipodi.sourceforge.net/DTD/sodipodi-0.dtd"
   xmlns:inkscape="http://www.inkscape.org/namespaces/inkscape"
   width="0.83333337in"
   height="0.75683212in"
   viewBox="0 0 250.00001 227.04991"
   version="1.1"
   id="svg3"
   sodipodi:docname="final.svg"
   inkscape:version="0.92.4 (5da689c313, 2019-01-14)">
  <metadata
     id="metadata9">
    <rdf:RDF>
      <cc:Work
         rdf:about="">
        <dc:format>image/svg+xml</dc:format>
        <dc:type
           rdf:resource="http://purl.org/dc/dcmitype/StillImage" />
        <dc:title></dc:title>
      </cc:Work>
    </rdf:RDF>
  </metadata>
  <defs
     id="defs7" />
  <sodipodi:namedview
     pagecolor="#ffffff"
     bordercolor="#666666"
     borderopacity="1"
     objecttolerance="10"
     gridtolerance="10"
     guidetolerance="10"
     inkscape:pageopacity="0"
     inkscape:pageshadow="2"
     inkscape:window-width="1920"
     inkscape:window-height="986"
     id="namedview5"
     showgrid="false"
     inkscape:snap-global="true"
     inkscape:zoom="7.9999999"
     inkscape:cx="33.256616"
     inkscape:cy="34.68539"
     inkscape:window-x="-11"
     inkscape:window-y="-11"
     inkscape:window-maximized="1"
     inkscape:current-layer="svg3"
     fit-margin-top="0"
     fit-margin-left="0"
     fit-margin-right="-2.7755576e-17"
     fit-margin-bottom="0" />
  <rect
     style="opacity:1;fill:#ff7700;fill-opacity:1;stroke:none;stroke-width:0.2273998;stroke-linecap:butt;stroke-linejoin:round;stroke-miterlimit:4;stroke-dasharray:none;stroke-dashoffset:0;stroke-opacity:1;paint-order:normal"
     id="rect2237-56"
     width="250.00031"
     height="227.0193"
     x="-9.2438604e-05"
     y="-2.1316282e-14" />
  <path
     inkscape:connector-curvature="0"
     style="opacity:1;fill:#004455;fill-opacity:1;stroke:none;stroke-width:0.23784886;stroke-linecap:butt;stroke-linejoin:round;stroke-miterlimit:4;stroke-dasharray:none;stroke-dashoffset:0;stroke-opacity:1;paint-order:normal"
     d="m 130.80306,52.800499 c -0.51418,2.13413 -3.2326,7.54281 -9.47166,8.53487 -5.26322,-1.34133 -8.99714,-2.05149 -9.46194,-3.98069 -0.54034,1.65438 -1.69061,6.05664 -2.39039,6.42645 -0.52283,0.27735 -0.82108,-0.77782 -1.27535,-1.20602 -0.54834,-0.51577 -0.97102,0.009 -1.43327,0.91364 l -2.31993,5.1586 -2.02358,7.19672 -1.00084,4.22246 -2.31509,6.16781 c -0.42082,0.94398 -0.8184,1.19532 -1.20733,2.39234 l -0.97899,4.16342 c -1.13652,4.21868 -1.32623,3.47893 -2.37824,9.327631 -0.44792,2.49128 -1.3761,8.82917 -1.90211,10.59549 -0.49254,1.65923 -0.85257,1.27331 -1.30207,2.33894 -0.53402,1.2651 -0.83143,4.16594 -1.47699,5.03208 -1.00582,1.35754 -1.27798,-3.98203 -1.74664,-6.77504 h -0.31823 c -0.5069,3.02658 -0.64689,5.6651 -1.45027,8.25375 -0.79542,2.55451 -2.62312,5.50274 -3.80907,4.7875 -0.62164,-0.37469 -0.83644,-2.16728 -1.44054,-2.02128 -0.24073,0.0584 -2.41525,3.11849 -2.70377,3.70238 -0.8815,1.77604 -1.44267,4.81694 -2.2349,7.15737 -0.89903,2.64701 -1.14457,2.16433 -2.23005,5.38066 -0.65194,1.92685 -1.37407,4.58842 -2.23006,5.58591 -1.71032,1.99983 -2.242,-4.56601 -4.30464,-1.18915 l -2.6819,5.61963 c -0.43832,1.09966 -0.79122,2.75138 -1.3045,3.5056 -0.94523,1.38674 -1.56888,-1.52415 -2.50456,0.78713 l -1.15876,3.54213 c -0.57861,1.5522 -1.48886,3.38327 -1.92882,5.09113 -1.06958,4.15544 -1.79475,8.93744 -3.33294,11.8521 l -4.14431,6.67946 c -0.84803,1.33322 -1.53929,2.98793 -2.54828,2.69596 -0.61527,-0.17516 -1.02154,-0.97581 -1.75635,-0.81526 -0.71092,0.15574 -2.05186,2.39746 -2.70861,3.49716 -2.03872,3.42067 -2.518,6.88332 -3.50784,8.53769 -0.70935,1.18727 -2.65785,2.3084 -3.33052,3.86544 -0.59298,1.37215 -1.17415,4.72056 -1.78307,6.17061 -0.62961,1.50355 -0.81162,-0.0987 -1.73934,0.64096 -0.94683,0.75904 -1.7855,3.34359 -2.39282,3.56742 -0.97393,0.36011 -0.90235,-3.18663 -2.38796,-3.44937 -0.68859,-0.11673 -2.7251,0.56014 -3.34994,1.32412 -0.71091,0.87096 -1.32775,2.56776 -2.07214,3.11764 -0.97234,0.72014 -1.14068,-1.15257 -2.39039,0.56503 -0.99308,1.36242 -3.68401,6.25309 -4.62288,6.53046 -0.97551,0.2871 -2.1673,-2.73026 -3.50783,-2.20959 l -2.23006,1.16666 -1.5935904,1.49275 -2.70861,0.84334 c -0.70296,0.53529 -1.33094,2.38769 -2.07216,2.66506 -0.51964,0.19458 -0.924,-0.5298 -1.43568,-0.2671 -0.4798,0.24334 -0.77164,1.24107 -1.27535996,1.10483 -0.32248,-0.0875 -0.53645,-0.59057 -0.927980008294,-0.93332 v 4.86059 C 83.1412,227.0731 166.85113,227.0487 249.80538,227.01464 l -0.005,-9.26863 -1.51828,-0.86024 c -0.81776,0.11202 -1.10876,1.9603 -2.23249,1.78515 l -2.39037,-1.38595 c -1.16354,-0.11188 -1.39463,1.10711 -1.91426,1.2482 -0.50369,0.13627 -0.79316,-0.86153 -1.27293,-1.10484 -0.51173,-0.26274 -0.91601,0.46172 -1.43569,0.2671 -0.74121,-0.27733 -1.36916,-2.12696 -2.07215,-2.66225 l -2.70862,-0.84335 -1.59601,-1.49558 -2.23005,-1.16667 c -1.34062,-0.52063 -2.53238,2.49673 -3.50786,2.20963 -0.9389,-0.27736 -3.62979,-5.16804 -4.62287,-6.53046 -1.24961,-1.71763 -1.41805,0.15507 -2.39039,-0.56503 -0.7444,-0.54988 -1.36127,-2.24672 -2.07213,-3.11768 -0.62488,-0.76393 -2.65886,-1.44084 -3.34752,-1.32404 -1.48557,0.26274 -1.41642,3.81217 -2.39038,3.45214 -0.60724,-0.22383 -1.44358,-2.80834 -2.39039,-3.56742 -0.92777,-0.73958 -1.1122,0.86258 -1.74178,-0.64096 -0.6089,-1.45005 -1.19007,-4.8013 -1.78306,-6.17346 -0.67268,-1.55704 -2.62123,-2.67532 -3.33052,-3.86261 -0.98989,-1.65438 -1.46661,-5.11701 -3.50542,-8.53767 -0.65667,-1.09966 -1.99768,-3.34429 -2.70861,-3.49997 -0.73484,-0.16061 -1.14103,0.6429 -1.75635,0.81807 -1.00898,0.29193 -1.70033,-1.36555 -2.54828,-2.69878 l -4.1443,-6.67664 c -1.53822,-2.91461 -2.26337,-7.69952 -3.33295,-11.85491 -0.43995,-1.70792 -1.35021,-3.53612 -1.92882,-5.08832 l -1.15876,-3.54494 c -0.93568,-2.31124 -1.56172,0.59964 -2.50698,-0.78714 -0.51328,-0.75421 -0.86377,-2.40313 -1.30208,-3.50278 l -2.68433,-5.61963 c -2.0626,-3.37691 -2.5918,3.18341 -4.3022,1.18352 -0.85597,-0.9975 -1.58058,-3.6562 -2.23249,-5.58308 -1.08557,-3.21629 -1.33108,-2.73367 -2.23006,-5.38068 -0.79223,-2.34048 -1.35343,-5.38418 -2.2349,-7.16017 -0.28856,-0.58393 -2.46061,-3.63835 -2.70134,-3.69676 -0.60414,-0.14595 -0.82129,1.64382 -1.44296,2.01846 -1.18592,0.71529 -3.01123,-2.23294 -3.80664,-4.78751 -0.80336,-2.5886 -0.94581,-5.2272 -1.45271,-8.25374 h -0.31823 c -0.46862,2.79298 -0.74079,8.13262 -1.74664,6.77505 -0.64557,-0.8661 -0.94053,-3.76419 -1.47454,-5.02928 -0.4495,-1.06562 -0.81198,-0.68252 -1.30452,-2.34175 -0.52606,-1.76631 -1.45181,-8.10139 -1.89968,-10.592671 -1.05206,-5.84875 -1.24416,-5.11176 -2.38067,-9.33044 l -0.97655,-4.16342 c -0.38893,-1.19698 -0.78653,-1.44556 -1.20734,-2.38954 l -2.31752,-6.16781 -0.99841,-4.22527 -2.026,-7.19672 -2.31751,-5.15578 c -0.46223,-0.90504 -0.88735,-1.43224 -1.43569,-0.91645 -0.45426,0.42818 -0.7501,1.48336 -1.27292,1.20601 -0.69978,-0.36979 -1.85248,-4.77207 -2.39281,-6.42645 z"
     id="rect2237-5-6"
     sodipodi:nodetypes="cccccccccccccccccccccccccccccccccccccccccccccccccccccccccccccccccccccccccccccccccccccccccccccccccccccccccccccccc" />
  <g
     id="g1398"
     transform="matrix(0.50583693,0,0,0.50583693,-33.73522,-34.536611)">
    <path
       inkscape:connector-curvature="0"
       d="m 81.98812,335.90504 c 2.30422,1.54599 4.1834,3.58826 6.1496,5.51704 1.62819,1.73311 2.95333,3.72271 4.22076,5.7273 1.38488,2.03085 2.66687,4.12211 3.9155,6.23848 1.08362,2.07143 2.22746,4.11294 3.70599,5.92852 1.42497,1.86798 2.85564,3.72387 4.08545,5.72832 1.17486,1.97083 2.48738,3.84584 3.80184,5.72431 1.27502,1.85398 2.07987,3.96719 3.30259,5.85048 0.92922,1.50936 2.39327,2.67714 3.80253,3.73629 0.84866,0.43067 1.92695,1.01058 2.90964,0.66511 0.23435,-0.0823 0.86396,-0.48974 0.64702,-0.369 -4.2768,2.37981 -8.55101,4.76418 -12.8265,7.14625 2.03136,-1.29068 2.87805,-3.73589 3.52704,-5.94272 1.00785,-3.22986 1.43554,-6.58818 1.94618,-9.92099 0.74191,-4.97204 1.39695,-9.94213 1.75127,-14.95789 0.95851,-6.60895 1.72789,-13.22627 2.14981,-19.89161 0.38026,-7.8519 0.43024,-15.71493 0.46414,-23.57445 0.007,-8.6997 0.0184,-17.3994 0.0106,-26.09911 -0.1179,-8.35716 -0.0532,-16.70278 0.53149,-25.04175 0.25872,-7.00929 1.35026,-13.87018 2.93691,-20.68672 1.21351,-4.85495 3.02429,-9.52514 4.73173,-14.2192 1.14617,-3.55576 2.7991,-6.84983 4.60706,-10.10173 1.46699,-2.58809 2.71833,-5.29055 4.18964,-7.8756 0.86271,-1.54558 1.60956,-3.15532 2.47722,-4.69654 0.50224,-0.89901 1.11803,-1.71275 1.6182,-2.61475 0,0 14.33684,-6.2758 14.33684,-6.2758 v 0 c -0.63599,0.795 -0.88334,1.8072 -1.68512,2.48449 -0.8215,1.60284 -1.73876,3.1434 -2.53034,4.76381 -1.49206,2.61143 -2.93381,5.24351 -4.34222,7.90576 -1.71476,3.25799 -3.63015,6.38237 -4.75716,9.92484 -1.72785,4.69711 -3.62818,9.33675 -5.00826,14.15422 -1.65864,6.76445 -2.90878,13.56794 -3.19639,20.54773 -0.67795,8.31277 -0.73709,16.64313 -0.66228,24.9804 0.004,8.69501 0.0369,17.38996 0.0259,26.08499 -0.004,7.86359 0.0513,15.73205 -0.31085,23.58958 -0.34707,6.64336 -0.98083,13.25247 -2.0063,19.82828 -0.2776,5.02718 -0.82157,10.00765 -1.53148,14.98993 -0.46979,3.35649 -0.76582,6.75427 -1.73763,10.0143 -0.5945,2.50255 -1.44969,4.88874 -2.94116,7.01078 -6.78195,3.8007 -11.95795,11.04918 -18.55613,6.49412 -1.4897,-1.2415 -3.07158,-2.50088 -4.04409,-4.20547 -1.16043,-1.88985 -2.00609,-3.95228 -3.2582,-5.78924 -1.33267,-1.90342 -2.60388,-3.84546 -3.83056,-5.81854 -1.1914,-1.95247 -2.61555,-3.73132 -3.99373,-5.55287 -1.49606,-1.88996 -2.6848,-3.99657 -3.80113,-6.12917 -1.24501,-2.10078 -2.50686,-4.18631 -3.90149,-6.1929 -1.20682,-1.90815 -2.49326,-3.78329 -4.02146,-5.45037 -1.89122,-1.94886 -3.80982,-3.88417 -6.147,-5.31051 0,0 13.24321,-8.31839 13.24321,-8.31839 z"
       id="path2274"
       style="opacity:1;fill:#ffffff;fill-opacity:1;stroke:none;stroke-width:0.76835072;stroke-linecap:butt;stroke-linejoin:round;stroke-miterlimit:4;stroke-dasharray:none;stroke-dashoffset:0;stroke-opacity:1;paint-order:normal" />
    <path
       inkscape:connector-curvature="0"
       d="m 158.4247,299.14873 c -1.63436,3.10704 -2.77421,6.43314 -4.06345,9.68848 -1.88767,4.14187 -3.40955,8.44269 -4.69577,12.80551 -1.25143,5.04545 -2.30479,10.13925 -3.40926,15.22082 -0.95263,4.30119 -1.22434,8.69667 -1.37131,13.08577 -0.0906,3.70115 -0.0765,7.40352 -0.0332,11.10522 0.0618,2.84322 1.33194,5.47822 2.84034,7.83464 1.40493,1.93487 2.87079,3.81301 4.45407,5.60523 1.48936,1.55159 2.92797,2.862 5.03275,3.42168 1.76917,0.34955 3.57042,0.48367 5.12672,-0.54027 -25.30442,12.93767 -14.89031,9.49533 -11.09362,5.97852 1.02915,-0.95331 1.89517,-2.05726 2.78936,-3.13302 2.24254,-2.94346 4.18466,-6.11854 6.06208,-9.30471 2.22971,-3.82134 4.37324,-7.68064 5.98687,-11.80524 1.78043,-4.17119 3.62593,-8.2892 4.84706,-12.66614 1.11426,-4.24277 2.13516,-8.50493 2.79605,-12.84306 0.47382,-3.44861 0.58038,-6.93014 0.61132,-10.40621 0.001,-2.86725 0.0147,-5.73403 -0.007,-8.60127 0.0894,-2.38021 0.0222,-4.64872 -0.69945,-6.92301 -0.71818,-1.50022 -1.51996,-3.07016 -2.94493,-4.00159 -1.69162,-0.49436 -3.42778,-0.90838 -5.16615,-1.25279 -2.05159,-0.35588 -4.13745,-0.40241 -6.214,-0.43792 -1.9532,0.0601 -3.94709,-0.18159 -5.74198,-0.97986 0,0 12.96417,-8.74155 12.96417,-8.74155 v 0 c 1.77666,0.47952 3.56996,0.65426 5.4111,0.59411 2.14044,0.0771 4.28751,0.20178 6.38454,0.67032 1.90341,0.43936 3.93064,0.71737 5.59029,1.80577 1.51981,1.31358 2.56134,3.012 3.3599,4.84712 0.82091,2.50155 1.07912,4.7336 0.87498,7.37423 -0.007,2.87871 0.0374,5.75709 -0.007,8.6355 -0.0661,3.55433 -0.14491,7.11744 -0.63203,10.6445 -0.62466,4.39886 -1.60279,8.72705 -2.76984,13.01294 -1.06688,4.45762 -2.8376,8.64108 -4.75084,12.79428 -1.49357,4.23775 -3.61226,8.16833 -5.89617,12.03188 -1.76646,3.25817 -3.77465,6.39002 -5.80471,9.48767 -6.04811,7.37573 -5.29552,6.26271 -18.2493,12.88551 -1.93889,0.37788 -3.86814,0.26316 -5.75133,-0.37694 -2.17905,-0.90071 -3.81467,-2.41413 -5.40257,-4.13494 -1.64852,-1.85302 -3.18822,-3.78717 -4.59974,-5.82813 -1.57863,-2.63024 -2.99147,-5.51975 -3.18223,-8.62228 0.0222,-3.73176 0.002,-7.46382 0.0891,-11.19484 0.15007,-4.48375 0.4009,-8.97662 1.32318,-13.37977 1.1618,-5.08916 2.26136,-10.18108 3.36878,-15.28053 1.11094,-4.43234 2.73895,-8.75382 4.55191,-12.94289 1.33986,-3.19579 2.36896,-6.51769 3.77959,-9.68965 0,0 14.24107,-6.44309 14.24107,-6.44309 z"
       id="path2276"
       style="opacity:1;fill:#ffffff;fill-opacity:1;stroke:none;stroke-width:0.76835072;stroke-linecap:butt;stroke-linejoin:round;stroke-miterlimit:4;stroke-dasharray:none;stroke-dashoffset:0;stroke-opacity:1;paint-order:normal" />
    <path
       inkscape:connector-curvature="0"
       d="m 214.51957,283.00697 c -0.0957,2.68127 -0.0632,5.36537 -0.0513,8.04783 0.0699,2.54374 0.10907,5.03101 -0.50724,7.51122 -0.91896,3.05701 -1.26555,6.23092 -1.47316,9.40318 -0.075,3.83577 -0.49671,7.64778 -0.81232,11.46847 -0.54569,4.28544 -0.97814,8.58145 -1.56023,12.86196 -0.36925,3.96571 -1.05548,7.8904 -1.51072,11.84514 -0.30346,2.81257 -0.39992,5.64039 -0.4407,8.46705 -8.5e-4,2.00843 -0.1364,4.01321 0.23954,5.9943 0.45604,1.5193 2.00967,1.51594 3.3548,1.63656 2.23035,0.0531 4.4445,-0.56824 6.59056,-1.1395 3.79024,-0.97073 7.55004,-1.91209 11.24969,-3.19612 6.355,-1.81902 12.66672,-3.75288 19.07716,-5.37356 8.24576,-2.42763 16.64648,-4.24411 24.9702,-6.37831 9.32834,-1.85357 18.53062,-4.25237 27.79578,-6.38523 7.82005,-2.05247 15.72319,-3.77448 23.65616,-5.32837 4.84752,-1.10807 9.72172,-2.09217 14.60114,-3.05138 1.36635,-0.22787 2.80311,-0.42423 4.07255,-1.02426 0.20587,-0.0975 0.76147,-0.50095 0.56871,-0.37938 -13.24978,8.35661 -12.79577,3.13747 -13.16473,8.70716 -1.46441,0.0397 -2.8997,-0.0175 -4.35549,0.19166 0,0 12.47844,-9.25156 12.47844,-9.25156 v 0 c 1.66139,-0.0918 3.41987,-0.21825 4.9969,0.40668 5.83025,5.96061 -11.67251,9.77811 -16.89288,10.64929 -4.78101,0.91749 -9.5629,1.83061 -14.32483,2.84333 -7.86178,1.52253 -15.68375,3.2425 -23.44213,5.22964 -9.25826,2.13224 -18.47851,4.42645 -27.77006,6.41303 -8.36886,2.15845 -16.81335,4.01296 -25.10078,6.4791 -6.46365,1.69602 -12.84553,3.66776 -19.23036,5.63589 -3.79543,1.26222 -7.67545,2.19675 -11.53022,3.25763 -2.28522,0.54891 -4.66216,1.04884 -7.0143,0.68113 -1.98165,-0.40963 -3.69287,-1.18454 -4.36095,-3.2567 -0.4429,-2.093 -0.40719,-4.18564 -0.3408,-6.32023 0.0555,-2.89489 0.18481,-5.78903 0.50846,-8.66803 0.44695,-3.97961 1.17753,-7.91398 1.55448,-11.90248 0.56827,-4.2505 1.03243,-8.51046 1.55272,-12.76721 0.30309,-3.80066 0.78973,-7.59088 0.76008,-11.41018 0.19332,-3.24829 0.47025,-6.49862 1.26988,-9.66434 0.0621,-0.20038 0.65482,-2.0708 0.68766,-2.32323 0.20478,-1.57392 -0.17225,-3.22938 0.007,-4.80982 0.0106,-2.66499 0.0451,-5.33173 -0.0513,-7.9955 0,0 13.94408,-7.10486 13.94408,-7.10486 z"
       id="path2278"
       style="opacity:1;fill:#ffffff;fill-opacity:1;stroke:none;stroke-width:0.76835072;stroke-linecap:butt;stroke-linejoin:round;stroke-miterlimit:4;stroke-dasharray:none;stroke-dashoffset:0;stroke-opacity:1;paint-order:normal" />
    <path
       inkscape:connector-curvature="0"
       d="m 313.24487,284.07789 c -2.65771,-0.0639 -5.31678,-0.0416 -7.97503,-0.0341 -2.30697,0.297 -4.55738,0.75734 -6.68978,1.69863 -2.3936,0.92418 -4.8292,1.67341 -7.28309,2.42798 -2.82126,0.86641 -5.36064,2.27418 -7.94956,3.64574 -5.70891,2.63545 -17.98494,9.91974 5.73593,-3.66416 -2.08497,1.20369 -3.97057,2.67424 -5.77541,4.25795 -1.60468,1.40737 -2.88794,3.07325 -4.12351,4.795 -1.05369,1.47839 -1.2538,3.24317 -1.39101,5.00048 -0.14266,2.39464 1.10063,4.05735 2.76697,5.59356 1.68682,1.56174 3.78316,2.61601 5.94595,3.35187 2.3043,0.91354 4.63611,1.76985 7.06308,2.30008 2.99603,0.62564 6.00361,1.07573 9.05881,1.31395 3.57654,0.21893 7.16181,0.23328 10.74383,0.25709 4.07517,0.17984 8.1118,-0.16841 12.16349,-0.53641 3.28089,-0.46005 6.4744,-1.28938 9.70062,-2.00968 2.96903,-0.55271 5.77606,-1.39724 8.57134,-2.51215 2.10338,-0.89596 4.0979,-2.06695 6.24915,-2.83782 0.64222,-0.62833 1.54191,-0.75192 2.3026,-1.13301 0.75396,-0.37771 1.31227,-0.79119 2.13501,-1.06726 1.12913,-0.79555 2.46237,-1.28886 3.75024,-1.77959 0,0 -12.25471,9.67214 -12.25471,9.67214 v 0 c -1.26659,0.58543 -2.51658,1.19204 -3.7699,1.79925 -1.45653,0.75867 -2.92257,1.49816 -4.42224,2.16744 -2.04983,0.95944 -4.11387,1.88553 -6.2028,2.75828 -2.82799,1.05474 -5.77351,1.6193 -8.702,2.32724 -3.21114,0.73628 -6.43677,1.42342 -9.71888,1.76442 -4.07805,0.35255 -8.1567,0.55309 -12.25201,0.42413 -3.61995,-0.008 -7.24424,-0.0194 -10.85384,-0.33097 -3.12842,-0.28938 -6.22583,-0.77049 -9.29613,-1.44239 -2.44284,-0.66512 -4.82321,-1.5426 -7.18611,-2.44745 -2.28179,-0.95585 -4.47629,-2.14041 -6.2681,-3.87617 -1.92078,-1.86956 -3.32351,-3.9926 -3.46474,-6.75722 0.0806,-1.94575 0.16965,-3.93927 1.0253,-5.72747 1.14234,-1.90093 2.50947,-3.60405 4.0548,-5.19592 1.76122,-1.64734 3.54295,-3.30774 5.66148,-4.49304 6.90972,-4.02358 13.64358,-8.225 20.83422,-11.68661 2.60123,-1.39062 5.29996,-2.54397 8.12114,-3.4191 2.44765,-0.79248 4.88901,-1.6022 7.28771,-2.53552 2.27223,-0.71146 4.60821,-1.20283 6.99985,-1.23425 2.68934,0.008 5.37943,0.0288 8.0683,-0.0339 0,0 -12.66097,9.19871 -12.66097,9.19871 z"
       id="path2280"
       style="opacity:1;fill:#ffffff;fill-opacity:1;stroke:none;stroke-width:0.76835072;stroke-linecap:butt;stroke-linejoin:round;stroke-miterlimit:4;stroke-dasharray:none;stroke-dashoffset:0;stroke-opacity:1;paint-order:normal" />
    <path
       inkscape:connector-curvature="0"
       d="m 394.76366,288.27725 c -0.0188,2.52154 -0.41447,5.01493 -1.01944,7.45649 -0.6499,2.32339 -1.67409,4.51187 -2.709,6.68257 -0.77819,1.98197 -1.67306,3.90531 -2.59594,5.82155 -0.87813,1.43006 -1.11766,3.21295 -2.05391,4.60084 0.38741,5.36974 0.12906,0.73857 -14.22508,6.25097 -0.20994,0.0807 0.15487,-0.42241 0.23362,-0.63308 0.0983,-0.26237 0.17816,-0.53253 0.29753,-0.78602 0.0477,-0.10172 0.99572,-1.79825 1.03381,-1.86652 1.43078,-2.67572 3.23049,-5.12079 4.6942,-7.77752 2.07492,-3.96377 4.72073,-7.58602 6.98508,-11.44831 2.72056,-4.54018 5.73885,-8.88198 8.89016,-13.13029 3.12904,-4.5369 6.23845,-9.08353 9.40408,-13.59746 2.56897,-4.04254 5.87629,-7.51655 8.80307,-11.28797 2.17179,-2.8006 4.36279,-5.58322 6.50404,-8.40723 1.46685,-1.83044 2.82822,-3.74447 4.3636,-5.51927 3.14522,-3.85631 11.54851,-11.80146 16.17661,-8.30186 0.50457,0.38152 0.96747,0.96786 1.37613,1.44064 1.42616,2.00313 2.14588,4.37874 3.04435,6.63908 1.37763,3.39172 2.292,6.93035 3.4,10.41275 1.37072,3.97344 2.60626,7.98616 3.66695,12.0535 0.87356,4.36517 1.88206,8.69985 2.69328,13.07744 0.55481,3.82913 1.83038,7.46333 3.14335,11.08419 0.94312,3.12022 1.70497,6.29355 2.65716,9.41111 0.62412,2.28119 1.41137,4.49926 2.29134,6.69206 0.27563,0.76108 0.4601,1.52028 0.55519,2.31939 0,0 -14.15314,6.85154 -14.15314,6.85154 v 0 c 0.55037,-0.30641 0.0156,-1.08547 0.003,-1.58248 -0.88681,-2.23965 -1.73775,-4.48367 -2.31097,-6.82939 -0.94328,-3.0998 -1.58516,-6.28752 -2.55575,-9.38035 -1.32178,-3.7125 -2.58854,-7.44919 -3.18269,-11.35821 -0.7436,-4.35158 -1.80879,-8.63697 -2.63816,-12.9727 -1.0391,-4.04113 -2.29366,-8.02156 -3.65069,-11.96634 -1.09507,-3.43622 -2.08969,-6.89885 -3.43588,-10.24841 -0.87413,-2.05845 -1.57385,-4.24867 -2.87704,-6.08492 -0.22562,-0.21759 -0.60987,-0.69218 -0.99066,-0.75871 -0.30875,-0.0539 -1.13243,0.53175 -0.8629,0.37211 12.67714,-7.5091 16.34277,-10.79938 12.01176,-6.99217 -1.44397,1.87869 -3.11141,3.58703 -4.48878,5.52811 -2.21882,2.82732 -4.38626,5.68983 -6.66061,8.47413 -0.24531,0.32031 -2.62306,3.42928 -2.85484,3.7064 -2.06769,2.47195 -4.40548,4.74142 -6.04186,7.55304 -3.21019,4.50274 -6.37175,9.02296 -9.41307,13.63872 -3.12269,4.21389 -6.18182,8.46197 -8.89892,12.95477 -1.22947,2.09674 -2.40697,4.20953 -3.742,6.24179 -0.75175,1.14435 -1.64144,2.19849 -2.33813,3.37717 -0.32009,0.54165 -0.53778,1.13769 -0.80663,1.70654 -1.3434,2.68549 -3.00378,5.15134 -4.56191,7.71164 -3.45128,7.1174 -3.02585,3.59538 -16.05317,9.83885 -0.0551,0.0263 0.11756,0.0322 0.17631,0.0484 0.44491,-1.04973 -0.14931,0.21422 0.63364,-0.93336 0.74897,-1.09765 0.80345,-2.51718 1.56972,-3.61613 0.7931,-1.99597 2.01689,-3.78998 2.62299,-5.87268 0.96653,-2.13539 2.07592,-4.20474 2.83527,-6.4304 0.62244,-2.29715 1.22038,-4.66142 1.10854,-7.05914 0,0 13.94405,-7.10486 13.94405,-7.10486 z"
       id="path2282"
       style="opacity:1;fill:#ffffff;fill-opacity:1;stroke:none;stroke-width:0.76835072;stroke-linecap:butt;stroke-linejoin:round;stroke-miterlimit:4;stroke-dasharray:none;stroke-dashoffset:0;stroke-opacity:1;paint-order:normal" />
    <path
       inkscape:connector-curvature="0"
       d="m 406.39555,284.13638 c 2.59932,-0.82436 5.28817,-1.30059 7.99123,-1.6168 2.98322,-0.65919 6.01329,-1.0164 9.03264,-1.46308 4.1761,-0.54337 8.29407,-1.30003 12.39311,-2.25026 4.38407,-1.00831 8.85373,-1.57859 13.25467,-2.4844 3.2555,-0.54922 6.47107,-1.24222 9.70529,-1.89823 1.62122,-0.52812 0.79129,-0.28794 2.49101,-0.71587 0,0 -12.32286,9.44624 -12.32286,9.44624 v 0 c -1.70157,0.46594 -0.85432,0.25046 -2.54144,0.64807 -3.18466,0.66246 -6.39195,1.17505 -9.58736,1.78212 -4.4021,0.77573 -8.81232,1.51448 -13.1752,2.49552 -4.14723,0.94395 -8.34142,1.61588 -12.54968,2.22864 -3.05069,0.49016 -6.10513,0.95036 -9.14482,1.50523 -2.72388,0.40325 -5.38263,1.06446 -8.05213,1.72804 0,0 12.50554,-9.40522 12.50554,-9.40522 z"
       id="path2284"
       style="opacity:1;fill:#ffffff;fill-opacity:1;stroke:none;stroke-width:0.76835072;stroke-linecap:butt;stroke-linejoin:round;stroke-miterlimit:4;stroke-dasharray:none;stroke-dashoffset:0;stroke-opacity:1;paint-order:normal" />
    <path
       inkscape:connector-curvature="0"
       d="m 477.79306,310.73405 c 0.1069,-3.10974 0.1,-6.2218 0.082,-9.33291 -3e-4,-3.29723 -0.01,-6.59458 0.019,-9.8917 0.019,-4.26593 0.045,-8.53182 0.047,-12.7978 0.038,-4.38693 -0.019,-8.77372 -0.037,-13.16056 -0.001,-3.16116 -0.1563,-6.31943 0.1978,-9.46573 0.2122,-2.03374 0.5131,-4.0416 1.3752,-5.90948 12.4874,-7.36349 12.1053,-12.22268 16.7602,-4.38185 1.1177,2.5268 2.1658,5.08316 3.2011,7.64555 1.1194,2.66737 2.1912,5.35407 3.3193,8.01879 1.5379,3.28714 3.1278,6.54216 4.4183,9.93689 1.4604,3.83998 2.4745,7.83241 4.0263,11.63463 1.472,3.56351 3.1323,7.06563 4.9836,10.44932 1.3816,3.01152 2.876,5.90028 4.7851,8.60606 1.4084,1.74154 3.123,3.15512 5.0443,4.28967 1.8016,1.30249 3.8671,1.84997 6.0352,2.12272 0.712,0.0551 1.2137,0.18578 1.8957,-0.088 0.2394,-0.0962 0.8646,-0.56169 0.6394,-0.43598 -30.2148,16.86372 -14.4077,10.22019 -11.9725,6.25129 0.7005,-2.1186 0.5953,-4.41737 0.6096,-6.62349 -0.1622,-2.78445 0.2391,-5.53701 0.5654,-8.29289 0.3094,-3.45794 0.8843,-6.87441 1.7609,-10.23167 1.1484,-3.84977 2.4244,-7.65901 3.752,-11.45013 1.1767,-3.37192 2.3156,-6.75553 3.4503,-10.14147 0.7934,-2.53625 1.7963,-4.98783 3.0557,-7.32577 0.862,-1.69784 2.0215,-3.21339 2.9809,-4.8524 0,0 14.3356,-6.274 14.3356,-6.274 v 0 c -1.1349,1.51014 -2.0687,3.20786 -3.0834,4.79349 -1.3947,2.22819 -2.5001,4.60389 -3.2963,7.11364 -1.234,3.36697 -2.2476,6.8169 -3.4934,10.18082 -1.4051,3.72972 -2.5613,7.53871 -3.8096,11.32204 -0.873,3.29289 -1.5186,6.56673 -1.7597,9.97447 -0.2668,2.71263 -0.811,5.4032 -0.6329,8.14189 0.01,2.35914 0.1122,4.74078 -0.2525,7.0798 -1.5925,6.89904 -10.7603,10.89639 -17.5012,9.80989 -2.2941,-0.46641 -4.4362,-1.28709 -6.3654,-2.64367 -2.023,-1.33768 -3.9067,-2.87328 -5.3404,-4.85383 -1.8686,-2.7956 -3.3504,-5.75691 -4.8022,-8.78699 -1.8411,-3.45179 -3.4758,-7.02263 -4.9716,-10.63575 -1.6009,-3.79092 -2.6531,-7.78581 -4.0888,-11.64286 -1.3251,-3.36299 -2.8226,-6.64391 -4.514,-9.84002 -1.0948,-2.68731 -2.1766,-5.38011 -3.2984,-8.05567 -0.9815,-2.4934 -2.0534,-4.94547 -3.1953,-7.36926 -0.3582,-0.6031 -0.6779,-1.46812 -1.2356,-1.92909 -0.5602,-0.46305 -0.5682,0.0824 -0.539,0.0653 4.3416,-2.54018 8.6357,-5.1608 12.9536,-7.74119 -1.6057,1.11023 -1.5375,3.46977 -1.8664,5.20236 -0.4781,3.10037 -0.4134,6.20621 -0.4025,9.33962 -0.019,4.39909 -0.074,8.79817 -0.037,13.19733 0,4.25011 0.025,8.50011 0.047,12.75015 0.028,3.29102 0.019,6.58229 0.019,9.87343 -0.019,3.08348 -0.025,6.16803 0.081,9.2501 0,0 -13.944,7.10486 -13.944,7.10486 z"
       id="path2286"
       style="opacity:1;fill:#ffffff;fill-opacity:1;stroke:none;stroke-width:0.76835072;stroke-linecap:butt;stroke-linejoin:round;stroke-miterlimit:4;stroke-dasharray:none;stroke-dashoffset:0;stroke-opacity:1;paint-order:normal" />
  </g>
</svg>
