<?xml version="1.0" encoding="UTF-8" standalone="no"?>
<svg
   xmlns:dc="http://purl.org/dc/elements/1.1/"
   xmlns:cc="http://creativecommons.org/ns#"
   xmlns:rdf="http://www.w3.org/1999/02/22-rdf-syntax-ns#"
   xmlns:svg="http://www.w3.org/2000/svg"
   xmlns="http://www.w3.org/2000/svg"
   xmlns:sodipodi="http://sodipodi.sourceforge.net/DTD/sodipodi-0.dtd"
   xmlns:inkscape="http://www.inkscape.org/namespaces/inkscape"
   width="2.0833333in"
   height="2.0833333in"
   viewBox="0 0 624.99997 625.00074"
   version="1.1"
   id="svg3"
   sodipodi:docname="icon.svg"
   inkscape:version="0.92.4 (5da689c313, 2019-01-14)">
  <metadata
     id="metadata9">
    <rdf:RDF>
      <cc:Work
         rdf:about="">
        <dc:format>image/svg+xml</dc:format>
        <dc:type
           rdf:resource="http://purl.org/dc/dcmitype/StillImage" />
        <dc:title></dc:title>
      </cc:Work>
    </rdf:RDF>
  </metadata>
  <defs
     id="defs7" />
  <sodipodi:namedview
     pagecolor="#ffffff"
     bordercolor="#666666"
     borderopacity="1"
     objecttolerance="10"
     gridtolerance="10"
     guidetolerance="10"
     inkscape:pageopacity="0"
     inkscape:pageshadow="2"
     inkscape:window-width="1920"
     inkscape:window-height="986"
     id="namedview5"
     showgrid="false"
     inkscape:snap-global="true"
     inkscape:zoom="2.0000001"
     inkscape:cx="35.501099"
     inkscape:cy="77.833655"
     inkscape:window-x="-11"
     inkscape:window-y="-11"
     inkscape:window-maximized="1"
     inkscape:current-layer="svg3"
     fit-margin-top="0"
     fit-margin-left="0"
     fit-margin-right="0"
     fit-margin-bottom="0" />
  <rect
     style="opacity:1;fill:#ff9a00;fill-opacity:1;stroke:none;stroke-width:0.59658039;stroke-linecap:butt;stroke-linejoin:round;stroke-miterlimit:4;stroke-dasharray:none;stroke-dashoffset:0;stroke-opacity:1;paint-order:normal"
     id="rect2237"
     width="625.00079"
     height="625.00079"
     x="-0.00041238451"
     y="5.6843419e-14"
     rx="189.6877" />
  <path
     style="opacity:1;fill:#004455;fill-opacity:1;stroke:none;stroke-width:0.19551538;stroke-linecap:butt;stroke-linejoin:round;stroke-miterlimit:4;stroke-dasharray:none;stroke-dashoffset:0;stroke-opacity:1;paint-order:normal"
     d="M 104.64258 42.847656 C 104.23123 44.650221 102.0557 49.218712 97.064453 50.056641 C 92.853882 48.923701 89.867933 48.322836 89.496094 46.693359 C 89.063825 48.090708 88.143805 51.808739 87.583984 52.121094 C 87.165719 52.355356 86.925917 51.465182 86.5625 51.103516 C 86.123825 50.667875 85.785814 51.11063 85.416016 51.875 L 83.560547 56.232422 L 81.941406 62.310547 L 81.140625 65.876953 L 79.289062 71.085938 C 78.95241 71.883261 78.633408 72.096367 78.322266 73.107422 L 77.539062 76.623047 C 76.629852 80.186297 76.478327 79.561924 75.636719 84.501953 C 75.27838 86.606184 74.53604 91.959276 74.115234 93.451172 C 73.721206 94.85262 73.433818 94.527671 73.074219 95.427734 C 72.647006 96.496287 72.409022 98.946164 71.892578 99.677734 C 71.087923 100.82437 70.869065 96.314163 70.494141 93.955078 L 70.240234 93.955078 C 69.834715 96.511443 69.722785 98.739308 69.080078 100.92578 C 68.443743 103.08342 66.981964 105.57482 66.033203 104.9707 C 65.535892 104.65422 65.364142 103.14035 64.880859 103.26367 C 64.688284 103.31296 62.947616 105.89746 62.716797 106.39062 C 62.011598 107.89074 61.563476 110.45872 60.929688 112.43555 C 60.210465 114.67131 60.012914 114.26383 59.144531 116.98047 C 58.622983 118.60795 58.046121 120.85474 57.361328 121.69727 C 55.993074 123.3864 55.568082 117.84114 53.917969 120.69336 L 51.771484 125.43945 C 51.420829 126.36826 51.139139 127.76335 50.728516 128.40039 C 49.972337 129.57169 49.473152 127.11421 48.724609 129.06641 L 47.798828 132.05859 C 47.335936 133.36963 46.605877 134.9149 46.253906 136.35742 C 45.398246 139.86726 44.81844 143.90731 43.587891 146.36914 L 40.273438 152.00977 C 39.595013 153.13586 39.041568 154.53371 38.234375 154.28711 C 37.742158 154.13916 37.417927 153.464 36.830078 153.59961 C 36.261343 153.73114 35.187507 155.62388 34.662109 156.55273 C 33.031139 159.44195 32.647342 162.36635 31.855469 163.76367 C 31.287994 164.76648 29.729545 165.71418 29.191406 167.0293 C 28.717022 168.18829 28.252758 171.01549 27.765625 172.24023 C 27.261935 173.51019 27.115224 172.15854 26.373047 172.7832 C 25.615587 173.42433 24.94484 175.60585 24.458984 175.79492 C 23.679841 176.09908 23.737312 173.10472 22.548828 172.88281 C 21.997953 172.78422 20.36901 173.35474 19.869141 174 C 19.300407 174.73566 18.806446 176.16838 18.210938 176.63281 C 17.433071 177.24106 17.298596 175.66056 16.298828 177.11133 C 16.004511 177.53764 15.50907 178.39248 14.982422 179.28711 C 26.044617 191.93489 42.281394 199.92569 60.464844 199.99414 L 139.53516 199.99414 C 158.35747 199.92329 175.10636 191.37447 186.17578 177.94727 L 186.12695 177.89844 L 184.34375 176.91406 C 183.27127 176.47432 182.3175 179.02177 181.53711 178.7793 C 180.78599 178.54503 178.63235 174.41443 177.83789 173.26367 C 176.83819 171.8129 176.70365 173.39536 175.92578 172.78711 C 175.33026 172.32269 174.83822 170.88994 174.26953 170.1543 C 173.76963 169.50904 172.14078 168.93653 171.58984 169.03516 C 170.40139 169.2571 170.4569 172.25527 169.67773 171.95117 C 169.19194 171.7621 168.52308 169.57866 167.76562 168.9375 C 167.02342 168.31284 166.8767 169.66643 166.37305 168.39648 C 165.88592 167.17173 165.41971 164.34061 164.94531 163.18164 C 164.40718 161.86649 162.84868 160.92273 162.28125 159.91992 C 161.48934 158.52256 161.1076 155.59821 159.47656 152.70898 C 158.95122 151.78017 157.87928 149.88344 157.31055 149.75195 C 156.72267 149.6163 156.39851 150.29541 155.90625 150.44336 C 155.09906 150.68993 154.54555 149.29015 153.86719 148.16406 L 150.55078 142.52539 C 149.32021 140.0636 148.74043 136.02152 147.88477 132.51172 C 147.53281 131.06915 146.80469 129.52393 146.3418 128.21289 L 145.41406 125.21875 C 144.66552 123.26659 144.16637 125.72602 143.41016 124.55469 C 142.99954 123.91765 142.71784 122.52451 142.36719 121.5957 L 140.2207 116.84961 C 138.57062 113.99735 138.14762 119.53878 136.7793 117.84961 C 136.09453 117.00708 135.51371 114.76033 134.99219 113.13281 C 134.12373 110.41621 133.92817 110.82365 133.20898 108.58789 C 132.5752 106.61103 132.12509 104.04108 131.41992 102.54102 C 131.18908 102.0478 129.45234 99.467297 129.25977 99.417969 C 128.77645 99.294689 128.60281 100.80661 128.10547 101.12305 C 127.15675 101.72721 125.69688 99.237759 125.06055 97.080078 C 124.41787 94.893642 124.30396 92.663748 123.89844 90.107422 L 123.64258 90.107422 C 123.26769 92.466472 123.05077 96.976746 122.24609 95.830078 C 121.72964 95.098543 121.49362 92.650584 121.06641 91.582031 C 120.70681 90.681968 120.41747 91.00692 120.02344 89.605469 C 119.60259 88.113576 118.86024 82.762431 118.50195 80.658203 C 117.6603 75.718129 117.50686 76.340597 116.59766 72.777344 L 115.81641 69.259766 C 115.50526 68.248752 115.18822 68.039507 114.85156 67.242188 L 112.99805 62.033203 L 112.19922 58.462891 L 110.57812 52.384766 L 108.72266 48.03125 C 108.35287 47.266819 108.01289 46.820205 107.57422 47.255859 C 107.21081 47.617517 106.9749 48.50965 106.55664 48.275391 C 105.99682 47.963049 105.07485 44.245005 104.64258 42.847656 z "
     transform="matrix(3.1250037,0,0,3.1250037,-3.85e-4,0)"
     id="rect2237-5" />
</svg>
