<?xml version="1.0" encoding="UTF-8" standalone="no"?>
<svg
   xmlns:dc="http://purl.org/dc/elements/1.1/"
   xmlns:cc="http://creativecommons.org/ns#"
   xmlns:rdf="http://www.w3.org/1999/02/22-rdf-syntax-ns#"
   xmlns:svg="http://www.w3.org/2000/svg"
   xmlns="http://www.w3.org/2000/svg"
   xmlns:sodipodi="http://sodipodi.sourceforge.net/DTD/sodipodi-0.dtd"
   xmlns:inkscape="http://www.inkscape.org/namespaces/inkscape"
   width="2.0833333in"
   height="2.0833333in"
   viewBox="0 0 624.99997 625.00074"
   version="1.1"
   id="svg3"
   sodipodi:docname="icon.svg"
   inkscape:version="0.92.4 (5da689c313, 2019-01-14)">
  <metadata
     id="metadata9">
    <rdf:RDF>
      <cc:Work
         rdf:about="">
        <dc:format>image/svg+xml</dc:format>
        <dc:type
           rdf:resource="http://purl.org/dc/dcmitype/StillImage" />
        <dc:title></dc:title>
      </cc:Work>
    </rdf:RDF>
  </metadata>
  <defs
     id="defs7" />
  <sodipodi:namedview
     pagecolor="#ffffff"
     bordercolor="#666666"
     borderopacity="1"
     objecttolerance="10"
     gridtolerance="10"
     guidetolerance="10"
     inkscape:pageopacity="0"
     inkscape:pageshadow="2"
     inkscape:window-width="1920"
     inkscape:window-height="986"
     id="namedview5"
     showgrid="false"
     inkscape:snap-global="false"
     inkscape:zoom="1.4142137"
     inkscape:cx="8.4217706"
     inkscape:cy="44.1095"
     inkscape:window-x="-11"
     inkscape:window-y="-11"
     inkscape:window-maximized="1"
     inkscape:current-layer="svg3"
     fit-margin-top="0"
     fit-margin-left="0"
     fit-margin-right="0"
     fit-margin-bottom="0" />
  <rect
     style="opacity:1;fill:#ff8000;fill-opacity:1;stroke:none;stroke-width:0.59658039;stroke-linecap:butt;stroke-linejoin:round;stroke-miterlimit:4;stroke-dasharray:none;stroke-dashoffset:0;stroke-opacity:1;paint-order:normal"
     id="rect2237"
     width="625.00079"
     height="625.00079"
     x="-0.00041238451"
     y="5.6843419e-14"
     rx="189.6877" />
  <path
     style="opacity:1;fill:#004455;fill-opacity:1;stroke:none;stroke-width:0.1909055;stroke-linecap:butt;stroke-linejoin:round;stroke-miterlimit:4;stroke-dasharray:none;stroke-dashoffset:0;stroke-opacity:1;paint-order:normal"
     d="M 108.01758 48.328125 C 107.61929 49.691736 105.51259 53.147369 100.67969 53.78125 C 96.602691 52.924201 88.869804 52.470958 88.509766 51.238281 C 88.091216 52.295362 87.200286 55.109409 86.658203 55.345703 C 86.253244 55.522919 86.021787 54.847818 85.669922 54.574219 C 85.245138 54.244661 84.918604 54.580127 84.560547 55.158203 L 82.763672 58.455078 L 81.195312 63.052734 L 80.419922 65.75 L 78.626953 69.691406 C 78.300976 70.29457 77.992657 70.455862 77.691406 71.220703 L 76.933594 73.880859 C 76.05324 76.576405 75.906692 76.102783 75.091797 79.839844 C 74.744844 81.431663 74.024669 85.480775 73.617188 86.609375 C 73.235658 87.66955 72.957563 87.42458 72.609375 88.105469 C 72.195699 88.91382 71.964898 90.766883 71.464844 91.320312 C 70.685712 92.187713 70.474364 88.774847 70.111328 86.990234 L 69.865234 86.990234 C 69.472608 88.924085 69.364516 90.611595 68.742188 92.265625 C 68.126063 93.89785 66.709655 95.781226 65.791016 95.324219 C 65.309455 95.084811 65.14372 93.939917 64.675781 94.033203 C 64.489311 94.070563 62.805525 96.025353 62.582031 96.398438 C 61.899184 97.533243 61.463285 99.475274 60.849609 100.9707 C 60.153207 102.66203 59.963894 102.35507 59.123047 104.41016 C 58.618059 105.64133 58.05759 107.34116 57.394531 107.97852 C 56.069675 109.25632 55.658283 105.06109 54.060547 107.21875 L 51.982422 110.80859 C 51.642886 111.51122 51.370262 112.56692 50.972656 113.04883 C 50.240456 113.93489 49.75798 112.07593 49.033203 113.55273 L 48.134766 115.81445 C 47.686584 116.80624 46.981457 117.97712 46.640625 119.06836 C 45.812108 121.72351 45.250112 124.77829 44.058594 126.64062 L 40.849609 130.91016 C 40.192714 131.76202 39.656583 132.81937 38.875 132.63281 C 38.398409 132.5209 38.082868 132.00874 37.513672 132.11133 C 36.962975 132.21084 35.924751 133.64304 35.416016 134.3457 C 33.836805 136.53135 33.465954 138.74371 32.699219 139.80078 C 32.149747 140.55939 30.640206 141.27661 30.119141 142.27148 C 29.65982 143.14823 29.209964 145.28637 28.738281 146.21289 C 28.250592 147.1736 28.109232 146.15047 27.390625 146.62305 C 26.657163 147.10804 26.007531 148.75933 25.537109 148.90234 C 24.782672 149.13244 24.838283 146.86514 23.6875 146.69727 C 23.154102 146.62272 21.575806 147.05678 21.091797 147.54492 C 20.541097 148.10143 20.064898 149.18576 19.488281 149.53711 C 18.735101 149.99725 18.604775 148.79901 17.636719 149.89648 C 16.867465 150.76701 14.781947 153.89308 14.054688 154.07031 C 13.299056 154.25375 12.37628 152.32552 11.337891 152.6582 L 9.609375 153.4043 L 8.375 154.35742 L 6.2773438 154.89648 C 5.7328068 155.23851 5.2460055 156.42238 4.671875 156.59961 C 4.2693315 156.72395 3.956924 156.25988 3.5605469 156.42773 C 3.2144144 156.57255 2.9921984 157.12847 2.6484375 157.13477 C 10.232573 182.00422 33.284103 200 60.699219 200 L 139.30078 200 C 167.92895 200 191.79273 180.3736 198.25977 153.79102 C 198.01096 154.0891 197.7347 154.3698 197.28906 154.3125 L 195.4375 153.42773 C 194.53619 153.35626 194.35758 154.13446 193.95508 154.22461 C 193.5649 154.31167 193.3404 153.675 192.96875 153.51953 C 192.57237 153.35164 192.25996 153.8138 191.85742 153.68945 C 191.28326 153.51225 190.7965 152.33032 190.25195 151.98828 L 188.1543 151.44922 L 186.91797 150.49414 L 185.18945 149.74805 C 184.15099 149.41538 183.22829 151.34361 182.47266 151.16016 C 181.74537 150.98294 179.66185 147.8588 178.89258 146.98828 C 177.92462 145.89079 177.79226 147.08707 177.03906 146.62695 C 176.46244 146.2756 175.9862 145.19127 175.43555 144.63477 C 174.95151 144.14665 173.37525 143.71442 172.8418 143.78906 C 171.69104 143.95695 171.74468 146.22419 170.99023 145.99414 C 170.51986 145.85113 169.87208 144.19986 169.13867 143.71484 C 168.42 143.24228 168.27675 144.26538 167.78906 143.30469 C 167.3174 142.37817 166.86754 140.23807 166.4082 139.36133 C 165.88713 138.36645 164.37755 137.6512 163.82812 136.89258 C 163.06133 135.83551 162.69257 133.62316 161.11328 131.4375 C 160.60461 130.73486 159.56632 129.30064 159.01562 129.20117 C 158.44639 129.09853 158.13094 129.6127 157.6543 129.72461 C 156.87273 129.91114 156.33652 128.85186 155.67969 128 L 152.4707 123.73242 C 151.27916 121.87012 150.71719 118.81332 149.88867 116.1582 C 149.54787 115.06692 148.84274 113.89998 148.39453 112.9082 L 147.49609 110.64258 C 146.7713 109.1658 146.28691 111.02476 145.55469 110.13867 C 145.15708 109.65677 144.88641 108.60302 144.54688 107.90039 L 142.4668 104.31055 C 140.86908 102.15285 140.45969 106.34425 139.13477 105.06641 C 138.47173 104.42905 137.90928 102.7312 137.4043 101.5 C 136.56338 99.444937 136.37408 99.75186 135.67773 98.060547 C 135.06404 96.56508 134.62811 94.621098 133.94531 93.486328 C 133.72178 93.113218 132.03998 91.162331 131.85352 91.125 C 131.38555 91.031749 131.2179 92.17469 130.73633 92.414062 C 129.81769 92.871108 128.40326 90.987726 127.78711 89.355469 C 127.16481 87.701468 127.05477 86.015859 126.66211 84.082031 L 126.41602 84.082031 C 126.05302 85.866621 125.84164 89.277582 125.0625 88.410156 C 124.56243 87.856762 124.33358 86.005597 123.91992 85.197266 C 123.57174 84.51637 123.29169 84.76134 122.91016 83.701172 C 122.50266 82.572575 121.78443 78.52346 121.4375 76.931641 C 120.62255 73.194554 120.47411 73.666249 119.59375 70.970703 L 118.83789 68.310547 C 118.53662 67.545729 118.22831 67.386361 117.90234 66.783203 L 116.10742 62.841797 L 115.33398 60.142578 L 113.76367 55.544922 L 111.96875 52.25 C 111.61071 51.671719 111.28217 51.334498 110.85742 51.664062 C 110.50553 51.937653 110.27608 52.612759 109.87109 52.435547 C 109.32902 52.199266 108.43613 49.385199 108.01758 48.328125 z "
     transform="matrix(3.1250037,0,0,3.1250037,-3.85e-4,0)"
     id="rect2237-6" />
</svg>
