<?xml version="1.0" encoding="UTF-8" standalone="no"?>
<svg
   xmlns:dc="http://purl.org/dc/elements/1.1/"
   xmlns:cc="http://creativecommons.org/ns#"
   xmlns:rdf="http://www.w3.org/1999/02/22-rdf-syntax-ns#"
   xmlns:svg="http://www.w3.org/2000/svg"
   xmlns="http://www.w3.org/2000/svg"
   xmlns:sodipodi="http://sodipodi.sourceforge.net/DTD/sodipodi-0.dtd"
   xmlns:inkscape="http://www.inkscape.org/namespaces/inkscape"
   width="2.0833333in"
   height="2.0833333in"
   viewBox="0 0 624.99997 625.00074"
   version="1.1"
   id="svg3"
   sodipodi:docname="icon.svg"
   inkscape:version="0.92.4 (5da689c313, 2019-01-14)">
  <metadata
     id="metadata9">
    <rdf:RDF>
      <cc:Work
         rdf:about="">
        <dc:format>image/svg+xml</dc:format>
        <dc:type
           rdf:resource="http://purl.org/dc/dcmitype/StillImage" />
        <dc:title></dc:title>
      </cc:Work>
    </rdf:RDF>
  </metadata>
  <defs
     id="defs7" />
  <sodipodi:namedview
     pagecolor="#ffffff"
     bordercolor="#666666"
     borderopacity="1"
     objecttolerance="10"
     gridtolerance="10"
     guidetolerance="10"
     inkscape:pageopacity="0"
     inkscape:pageshadow="2"
     inkscape:window-width="1920"
     inkscape:window-height="986"
     id="namedview5"
     showgrid="false"
     inkscape:snap-global="true"
     inkscape:zoom="2.8284273"
     inkscape:cx="81.763987"
     inkscape:cy="91.874059"
     inkscape:window-x="-11"
     inkscape:window-y="-11"
     inkscape:window-maximized="1"
     inkscape:current-layer="svg3"
     fit-margin-top="0"
     fit-margin-left="0"
     fit-margin-right="0"
     fit-margin-bottom="0" />
  <rect
     style="opacity:1;fill:#ff8000;fill-opacity:1;stroke:none;stroke-width:0.59658039;stroke-linecap:butt;stroke-linejoin:round;stroke-miterlimit:4;stroke-dasharray:none;stroke-dashoffset:0;stroke-opacity:1;paint-order:normal"
     id="rect2237"
     width="625.00079"
     height="625.00079"
     x="-0.00041238451"
     y="5.6843419e-14"
     rx="189.6877" />
  <path
     style="opacity:1;fill:#004455;fill-opacity:1;stroke:none;stroke-width:0.20536202;stroke-linecap:butt;stroke-linejoin:round;stroke-miterlimit:4;stroke-dasharray:none;stroke-dashoffset:0;stroke-opacity:1;paint-order:normal"
     d="M 105.41602 42.494141 C 104.96219 44.296708 102.56134 48.865196 97.054688 49.703125 C 92.409327 48.570186 89.115314 47.96932 88.705078 46.339844 C 88.228173 47.737192 87.213334 51.455223 86.595703 51.767578 C 86.134248 52.00184 85.869694 51.111664 85.46875 50.75 C 84.984776 50.314359 84.611109 50.757104 84.203125 51.521484 L 82.15625 55.878906 L 80.371094 61.957031 L 79.486328 65.523438 L 77.443359 70.732422 C 77.071942 71.529746 76.720223 71.742851 76.376953 72.753906 L 75.513672 76.269531 C 74.510575 79.832778 74.342577 79.208408 73.414062 84.148438 C 73.018719 86.252669 72.200587 91.60576 71.736328 93.097656 C 71.301612 94.499104 70.98462 94.174156 70.587891 95.074219 C 70.116563 96.142771 69.852975 98.592648 69.283203 99.324219 C 68.395457 100.47085 68.153875 95.960648 67.740234 93.601562 L 67.460938 93.601562 C 67.013543 96.157927 66.890715 98.385791 66.181641 100.57227 C 65.479597 102.7299 63.867044 105.22131 62.820312 104.61719 C 62.271651 104.3007 62.082015 102.78684 61.548828 102.91016 C 61.336368 102.95945 59.414812 105.54395 59.160156 106.03711 C 58.382138 107.53723 57.888687 110.1052 57.189453 112.08203 C 56.395963 114.31779 56.176803 113.91031 55.21875 116.62695 C 54.643346 118.25443 54.007459 120.50122 53.251953 121.34375 C 51.742413 123.03288 51.273632 117.48762 49.453125 120.33984 L 47.085938 125.08594 C 46.699074 126.01475 46.38662 127.40984 45.933594 128.04688 C 45.099332 129.21818 44.548495 126.76069 43.722656 128.71289 L 42.703125 131.70508 C 42.192434 133.01612 41.386363 134.56139 40.998047 136.00391 C 40.054029 139.51375 39.414258 143.5538 38.056641 146.01562 L 34.400391 151.65625 C 33.651912 152.78234 33.040934 154.1802 32.150391 153.93359 C 31.607346 153.78565 31.250112 153.11048 30.601562 153.24609 C 29.974098 153.37762 28.788635 155.27037 28.208984 156.19922 C 26.409598 159.08844 25.986922 162.01284 25.113281 163.41016 C 24.487205 164.41297 22.767536 165.36066 22.173828 166.67578 C 21.650459 167.83477 21.137045 170.66198 20.599609 171.88672 C 20.043908 173.15668 19.883268 171.80503 19.064453 172.42969 C 18.228777 173.07082 17.489151 175.25233 16.953125 175.44141 C 16.093527 175.74557 16.156911 172.75121 14.845703 172.5293 C 14.237944 172.43071 12.440158 173.00122 11.888672 173.64648 C 11.673444 173.89883 11.467338 174.23678 11.263672 174.58594 C 20.916026 188.11322 35.985619 197.46991 53.365234 199.54688 C 54.462963 199.59875 55.564261 199.63683 56.675781 199.64062 L 143.91211 199.64062 C 144.77452 199.63768 145.62624 199.59834 146.48047 199.56641 C 163.47381 197.57945 178.28276 188.64368 187.98633 175.64062 C 187.26551 174.54697 186.56269 173.42582 186.16992 172.91016 C 185.06699 171.45939 184.91874 173.04184 184.06055 172.43359 C 183.40353 171.96917 182.85984 170.53642 182.23242 169.80078 C 181.6809 169.15552 179.88322 168.58301 179.27539 168.68164 C 177.96422 168.90358 178.02564 171.90176 177.16602 171.59766 C 176.63006 171.40859 175.89232 169.22515 175.05664 168.58398 C 174.2378 167.95933 174.07714 169.31292 173.52148 168.04297 C 172.98405 166.81822 172.4687 163.98709 171.94531 162.82812 C 171.35161 161.51297 169.63188 160.56922 169.00586 159.56641 C 168.13218 158.16905 167.71157 155.2447 165.91211 152.35547 C 165.33252 151.42666 164.14894 149.52993 163.52148 149.39844 C 162.8729 149.26279 162.51575 149.94189 161.97266 150.08984 C 161.08211 150.33641 160.47106 148.93664 159.72266 147.81055 L 156.06445 142.17188 C 154.70681 139.71009 154.06706 135.668 153.12305 132.1582 C 152.73474 130.71563 151.93061 129.17041 151.41992 127.85938 L 150.39648 124.86523 C 149.57065 122.91307 149.01984 125.3725 148.18555 124.20117 C 147.73253 123.56413 147.42201 122.171 147.03516 121.24219 L 144.66797 116.49609 C 142.8475 113.64383 142.38071 119.18526 140.87109 117.49609 C 140.11561 116.65356 139.47381 114.40682 138.89844 112.7793 C 137.9403 110.0627 137.7251 110.47014 136.93164 108.23438 C 136.23242 106.25751 135.73697 103.68756 134.95898 102.1875 C 134.70431 101.69428 132.78667 99.113781 132.57422 99.064453 C 132.04099 98.941173 131.84948 100.45309 131.30078 100.76953 C 130.25409 101.37369 128.64344 98.884243 127.94141 96.726562 C 127.23236 94.540127 127.10755 92.310233 126.66016 89.753906 L 126.37695 89.753906 C 125.96335 92.112956 125.72566 96.62323 124.83789 95.476562 C 124.26811 94.745027 124.00648 92.297068 123.53516 91.228516 C 123.13842 90.328453 122.81948 90.653404 122.38477 89.251953 C 121.92046 87.76006 121.10232 82.408915 120.70703 80.304688 C 119.77847 75.364613 119.60855 75.987082 118.60547 72.423828 L 117.74414 68.90625 C 117.40086 67.895234 117.05111 67.685989 116.67969 66.888672 L 114.63477 61.679688 L 113.75195 58.109375 L 111.96484 52.03125 L 109.91797 47.677734 C 109.50999 46.913303 109.13436 46.46669 108.65039 46.902344 C 108.24945 47.264004 107.98879 48.156134 107.52734 47.921875 C 106.90972 47.609533 105.89292 43.891489 105.41602 42.494141 z "
     transform="matrix(3.1250037,0,0,3.1250037,-3.85e-4,0)"
     id="rect2237-5" />
</svg>
